<svg version="1.1" id="Layer_1" xmlns="http://www.w3.org/2000/svg" xmlns:xlink="http://www.w3.org/1999/xlink" x="0px" y="0px"
	 width="100%" viewBox="0 0 600 300" enable-background="new 0 0 600 300" xml:space="preserve">
<path fill="#000000" opacity="1.000000" stroke="none" 
	d="
M404.000000,301.000000 
	C269.370575,301.000000 135.241150,301.000000 1.055863,301.000000 
	C1.055863,201.065033 1.055863,101.130013 1.055863,1.097500 
	C200.879440,1.097500 400.758942,1.097500 600.819214,1.097500 
	C600.819214,100.999733 600.819214,200.999832 600.819214,301.000000 
	C535.463318,301.000000 469.981659,301.000000 404.000000,301.000000 
M483.544983,164.500137 
	C483.543518,146.508896 483.601440,128.517349 483.513153,110.526527 
	C483.474670,102.685150 480.705872,100.062096 472.882355,100.060074 
	C425.571991,100.047882 378.261597,100.048180 330.951233,100.059914 
	C323.250946,100.061821 320.323822,102.840187 320.305725,110.534927 
	C320.242645,137.355087 320.249329,164.175568 320.300751,190.995789 
	C320.316132,199.018860 323.163452,201.771347 331.214081,201.774155 
	C378.357880,201.790558 425.501648,201.790512 472.645447,201.774200 
	C480.747925,201.771408 483.429749,199.144073 483.521973,190.987534 
	C483.618042,182.492737 483.544189,173.996033 483.544983,164.500137 
M176.991837,181.459305 
	C176.991837,184.233170 176.991837,187.007019 176.991837,189.716476 
	C181.943100,189.716476 186.345993,189.716476 190.732483,189.716476 
	C190.732483,164.340271 190.732483,139.256546 190.732483,114.254593 
	C182.768188,114.254593 175.054916,114.254593 167.422668,114.254593 
	C165.470139,128.390976 163.574677,142.114197 161.679214,155.837418 
	C161.322952,155.855988 160.966690,155.874557 160.610413,155.893127 
	C158.670380,142.024841 156.730347,128.156555 154.761749,114.084030 
	C147.045563,114.084030 139.464737,114.084030 131.676819,114.084030 
	C131.676819,139.417923 131.676819,164.509918 131.676819,189.696579 
	C136.266724,189.696579 140.631409,189.696579 145.555298,189.696579 
	C145.555298,174.567566 145.555298,159.745026 145.555298,144.922485 
	C145.967712,144.886932 146.380127,144.851364 146.792557,144.815811 
	C149.362762,159.758377 151.932953,174.700943 154.524002,189.764694 
	C159.195236,189.764694 163.600479,189.764694 168.258270,189.764694 
	C170.927246,173.222382 173.565018,156.873459 176.202789,140.524536 
	C176.465805,140.550751 176.728821,140.576965 176.991837,140.603180 
	C176.991837,153.891174 176.991837,167.179153 176.991837,181.459305 
M241.654922,132.385452 
	C241.148621,134.809830 240.242126,137.227982 240.204376,139.659637 
	C240.028732,150.973526 240.001740,162.292206 240.134476,173.606674 
	C240.169159,176.562592 240.686661,179.587967 241.481262,182.442596 
	C242.738785,186.960358 245.737961,189.819107 250.565918,190.564041 
	C255.239548,191.285156 259.147919,190.308823 261.792480,186.045502 
	C261.984314,185.736282 262.442474,185.592331 262.898224,185.291397 
	C262.999542,186.968369 263.085541,188.391800 263.167755,189.752869 
	C268.450562,189.752869 273.373169,189.752869 278.293762,189.752869 
	C278.293762,164.143509 278.293762,138.797073 278.293762,113.581436 
	C272.988708,113.581436 268.082031,113.581436 262.916382,113.581436 
	C262.916382,118.364746 262.916382,122.794357 262.916382,127.367805 
	C253.369766,122.096016 246.957535,123.475693 241.654922,132.385452 
M203.893906,187.776047 
	C212.021683,192.083862 220.553635,192.419754 228.068497,187.430710 
	C235.823868,182.281937 235.089767,173.502625 234.975647,165.171143 
	C229.751495,165.171143 224.864532,165.171143 219.631836,165.171143 
	C219.631836,167.896332 220.065903,170.477737 219.502625,172.819214 
	C218.998230,174.915924 217.600098,178.224091 216.237350,178.413345 
	C212.540482,178.926758 212.552979,175.302002 212.419327,172.772598 
	C212.183884,168.316833 212.353455,163.839691 212.353455,158.851746 
	C219.991150,158.851746 227.388962,158.851746 234.965408,158.851746 
	C234.965408,152.191162 235.209549,146.039322 234.906860,139.914520 
	C234.477966,131.235916 229.690643,126.015327 221.167160,124.859665 
	C217.926544,124.420303 214.518234,124.438766 211.280807,124.904739 
	C202.495773,126.169182 197.184433,131.942551 196.987885,140.713074 
	C196.749405,151.356033 196.807800,162.012573 197.044876,172.656387 
	C197.169495,178.251740 198.720657,183.499023 203.893906,187.776047 
M291.528198,189.999893 
	C294.312195,189.999893 297.096222,189.999893 300.040649,189.999893 
	C300.040649,168.200424 300.040649,146.842804 300.040649,125.265610 
	C294.960541,125.265610 290.068329,125.265610 285.009827,125.265610 
	C285.009827,146.857239 285.009827,168.214523 285.009827,189.999893 
	C286.977234,189.999893 288.763245,189.999893 291.528198,189.999893 
M287.590576,109.914062 
	C286.664215,110.664665 285.046539,111.328270 284.939087,112.181938 
	C284.595398,114.912903 284.811462,117.714310 284.811462,120.532860 
	C290.235382,120.532860 295.097595,120.532860 300.081909,120.532860 
	C300.081909,116.919846 300.081909,113.627640 300.081909,109.913696 
	C296.144775,109.913696 292.356873,109.913696 287.590576,109.914062 
z"/>
<path fill="#F2941C" opacity="1.000000" stroke="none" 
	d="
M483.544800,165.000153 
	C483.544189,173.996033 483.618042,182.492737 483.521973,190.987534 
	C483.429749,199.144073 480.747925,201.771408 472.645447,201.774200 
	C425.501648,201.790512 378.357880,201.790558 331.214081,201.774155 
	C323.163452,201.771347 320.316132,199.018860 320.300751,190.995789 
	C320.249329,164.175568 320.242645,137.355087 320.305725,110.534927 
	C320.323822,102.840187 323.250946,100.061821 330.951233,100.059914 
	C378.261597,100.048180 425.571991,100.047882 472.882355,100.060074 
	C480.705872,100.062096 483.474670,102.685150 483.513153,110.526527 
	C483.601440,128.517349 483.543518,146.508896 483.544800,165.000153 
M441.437531,135.907562 
	C441.437531,129.988617 441.437531,124.069679 441.437531,118.120323 
	C437.775177,118.120323 434.200317,118.120323 430.402863,118.120323 
	C430.402863,138.467880 430.402863,158.506516 430.402863,179.441223 
	C434.630341,178.996277 438.523193,178.586548 442.416046,178.176819 
	C443.657104,177.472305 444.973602,178.193787 446.360168,178.736069 
	C457.984711,183.282516 469.844025,177.761841 472.514435,165.702789 
	C473.767334,160.044922 473.663971,153.751190 472.665253,148.008209 
	C471.135681,139.212509 464.201904,133.784378 455.235138,133.879501 
	C450.749786,133.927109 446.281860,135.612656 441.437531,135.907562 
M375.639923,165.491425 
	C375.475830,159.008087 375.594391,152.501892 375.072235,146.047531 
	C374.491425,138.868607 369.963684,134.238129 362.787262,134.017151 
	C357.617004,133.857941 352.405609,135.034409 346.756287,135.666122 
	C346.756287,130.395554 346.756287,124.335350 346.756287,118.225708 
	C342.519958,118.225708 338.829376,118.225708 335.271179,118.225708 
	C335.271179,138.692673 335.271179,158.742706 335.271179,178.784302 
	C339.208099,178.784302 342.784454,178.784302 346.822266,178.784302 
	C346.822266,171.018097 346.732513,163.562256 346.870728,156.110641 
	C346.919464,153.484589 347.117981,150.727341 347.967194,148.279449 
	C349.489075,143.892776 353.108917,142.451263 357.543121,142.863281 
	C361.954010,143.273132 363.318268,146.272583 363.482849,150.131149 
	C363.652893,154.117905 363.748718,158.109558 363.783966,162.099899 
	C363.833282,167.681107 363.796387,173.263062 363.796387,178.744659 
	C368.140350,178.744659 371.703247,178.744659 375.639679,178.744659 
	C375.639679,174.421707 375.639679,170.453445 375.639923,165.491425 
M384.960480,174.324127 
	C393.393707,183.485275 402.400024,180.738831 411.638763,175.501144 
	C411.966827,176.715576 412.278107,177.867798 412.517212,178.752869 
	C416.208405,178.752869 419.460083,178.752869 422.719055,178.752869 
	C422.719055,163.985748 422.719055,149.570786 422.719055,135.040329 
	C418.831482,135.040329 415.249023,135.040329 411.141663,135.040329 
	C411.141663,137.771622 411.171021,140.228226 411.136017,142.683945 
	C411.038696,149.513107 411.180939,156.360229 410.711792,163.164658 
	C410.372772,168.082123 406.271332,171.230042 401.457764,171.110184 
	C396.265259,170.980865 394.708282,167.634155 394.454773,163.162155 
	C394.332275,161.001343 394.191315,158.837906 394.180847,156.675079 
	C394.146484,149.553009 394.167908,142.430649 394.167908,135.177979 
	C389.961884,135.177979 386.284119,135.177979 382.282043,135.177979 
	C382.282043,144.738007 382.075623,153.887894 382.385223,163.020279 
	C382.506439,166.594650 383.785522,170.129761 384.960480,174.324127 
z"/>
<path fill="#FBFBFB" opacity="1.000000" stroke="none" 
	d="
M176.991837,180.963226 
	C176.991837,167.179153 176.991837,153.891174 176.991837,140.603180 
	C176.728821,140.576965 176.465805,140.550751 176.202789,140.524536 
	C173.565018,156.873459 170.927246,173.222382 168.258270,189.764694 
	C163.600479,189.764694 159.195236,189.764694 154.524002,189.764694 
	C151.932953,174.700943 149.362762,159.758377 146.792557,144.815811 
	C146.380127,144.851364 145.967712,144.886932 145.555298,144.922485 
	C145.555298,159.745026 145.555298,174.567566 145.555298,189.696579 
	C140.631409,189.696579 136.266724,189.696579 131.676819,189.696579 
	C131.676819,164.509918 131.676819,139.417923 131.676819,114.084030 
	C139.464737,114.084030 147.045563,114.084030 154.761749,114.084030 
	C156.730347,128.156555 158.670380,142.024841 160.610413,155.893127 
	C160.966690,155.874557 161.322952,155.855988 161.679214,155.837418 
	C163.574677,142.114197 165.470139,128.390976 167.422668,114.254593 
	C175.054916,114.254593 182.768188,114.254593 190.732483,114.254593 
	C190.732483,139.256546 190.732483,164.340271 190.732483,189.716476 
	C186.345993,189.716476 181.943100,189.716476 176.991837,189.716476 
	C176.991837,187.007019 176.991837,184.233170 176.991837,180.963226 
z"/>
<path fill="#F8F8F8" opacity="1.000000" stroke="none" 
	d="
M241.799698,132.025909 
	C246.957535,123.475693 253.369766,122.096016 262.916382,127.367805 
	C262.916382,122.794357 262.916382,118.364746 262.916382,113.581436 
	C268.082031,113.581436 272.988708,113.581436 278.293762,113.581436 
	C278.293762,138.797073 278.293762,164.143509 278.293762,189.752869 
	C273.373169,189.752869 268.450562,189.752869 263.167755,189.752869 
	C263.085541,188.391800 262.999542,186.968369 262.898224,185.291397 
	C262.442474,185.592331 261.984314,185.736282 261.792480,186.045502 
	C259.147919,190.308823 255.239548,191.285156 250.565918,190.564041 
	C245.737961,189.819107 242.738785,186.960358 241.481262,182.442596 
	C240.686661,179.587967 240.169159,176.562592 240.134476,173.606674 
	C240.001740,162.292206 240.028732,150.973526 240.204376,139.659637 
	C240.242126,137.227982 241.148621,134.809830 241.799698,132.025909 
M263.013123,164.457733 
	C262.981506,156.639603 263.148590,148.811386 262.753357,141.011688 
	C262.672729,139.420013 260.479614,137.935410 259.260284,136.401459 
	C258.115936,137.964111 256.120087,139.455917 255.983109,141.102386 
	C255.529327,146.556686 255.706406,152.066772 255.715805,157.555344 
	C255.724915,162.876923 255.565796,168.221451 256.035370,173.506607 
	C256.188110,175.225845 258.088379,176.789825 259.189362,178.424835 
	C260.424377,176.756989 262.268677,175.245041 262.745148,173.383087 
	C263.386566,170.876373 262.973572,168.099869 263.013123,164.457733 
z"/>
<path fill="#FCFCFC" opacity="1.000000" stroke="none" 
	d="
M203.604095,187.543060 
	C198.720657,183.499023 197.169495,178.251740 197.044876,172.656387 
	C196.807800,162.012573 196.749405,151.356033 196.987885,140.713074 
	C197.184433,131.942551 202.495773,126.169182 211.280807,124.904739 
	C214.518234,124.438766 217.926544,124.420303 221.167160,124.859665 
	C229.690643,126.015327 234.477966,131.235916 234.906860,139.914520 
	C235.209549,146.039322 234.965408,152.191162 234.965408,158.851746 
	C227.388962,158.851746 219.991150,158.851746 212.353455,158.851746 
	C212.353455,163.839691 212.183884,168.316833 212.419327,172.772598 
	C212.552979,175.302002 212.540482,178.926758 216.237350,178.413345 
	C217.600098,178.224091 218.998230,174.915924 219.502625,172.819214 
	C220.065903,170.477737 219.631836,167.896332 219.631836,165.171143 
	C224.864532,165.171143 229.751495,165.171143 234.975647,165.171143 
	C235.089767,173.502625 235.823868,182.281937 228.068497,187.430710 
	C220.553635,192.419754 212.021683,192.083862 203.604095,187.543060 
M214.829788,136.155411 
	C210.290421,140.543747 212.822433,145.912628 212.138809,150.822113 
	C215.015442,150.822113 217.228409,150.822113 219.872421,150.822113 
	C219.669846,146.871613 219.812027,143.221573 219.143723,139.726501 
	C218.870834,138.299332 216.842300,137.207855 214.829788,136.155411 
z"/>
<path fill="#FFFFFF" opacity="1.000000" stroke="none" 
	d="
M291.038727,189.999893 
	C288.763245,189.999893 286.977234,189.999893 285.009827,189.999893 
	C285.009827,168.214523 285.009827,146.857239 285.009827,125.265610 
	C290.068329,125.265610 294.960541,125.265610 300.040649,125.265610 
	C300.040649,146.842804 300.040649,168.200424 300.040649,189.999893 
	C297.096222,189.999893 294.312195,189.999893 291.038727,189.999893 
z"/>
<path fill="#F9F9F9" opacity="1.000000" stroke="none" 
	d="
M288.079773,109.913879 
	C292.356873,109.913696 296.144775,109.913696 300.081909,109.913696 
	C300.081909,113.627640 300.081909,116.919846 300.081909,120.532860 
	C295.097595,120.532860 290.235382,120.532860 284.811462,120.532860 
	C284.811462,117.714310 284.595398,114.912903 284.939087,112.181938 
	C285.046539,111.328270 286.664215,110.664665 288.079773,109.913879 
z"/>
<path fill="#080501" opacity="1.000000" stroke="none" 
	d="
M441.621765,136.232468 
	C446.281860,135.612656 450.749786,133.927109 455.235138,133.879501 
	C464.201904,133.784378 471.135681,139.212509 472.665253,148.008209 
	C473.663971,153.751190 473.767334,160.044922 472.514435,165.702789 
	C469.844025,177.761841 457.984711,183.282516 446.360168,178.736069 
	C444.973602,178.193787 443.657104,177.472305 442.416046,178.176819 
	C438.523193,178.586548 434.630341,178.996277 430.402863,179.441223 
	C430.402863,158.506516 430.402863,138.467880 430.402863,118.120323 
	C434.200317,118.120323 437.775177,118.120323 441.437531,118.120323 
	C441.437531,124.069679 441.437531,129.988617 441.621765,136.232468 
M443.397156,164.740845 
	C445.584808,168.964645 448.890015,171.573441 453.791199,170.643631 
	C458.713715,169.709763 460.994965,165.915695 461.309540,161.303345 
	C461.575470,157.404419 461.460541,153.333084 460.605103,149.543259 
	C459.654663,145.332535 456.578308,142.802689 451.931335,142.790298 
	C447.345154,142.778061 443.843323,145.066116 443.161407,149.340118 
	C442.400909,154.106598 443.062958,159.100037 443.397156,164.740845 
z"/>
<path fill="#080501" opacity="1.000000" stroke="none" 
	d="
M375.639801,165.988297 
	C375.639679,170.453445 375.639679,174.421707 375.639679,178.744659 
	C371.703247,178.744659 368.140350,178.744659 363.796387,178.744659 
	C363.796387,173.263062 363.833282,167.681107 363.783966,162.099899 
	C363.748718,158.109558 363.652893,154.117905 363.482849,150.131149 
	C363.318268,146.272583 361.954010,143.273132 357.543121,142.863281 
	C353.108917,142.451263 349.489075,143.892776 347.967194,148.279449 
	C347.117981,150.727341 346.919464,153.484589 346.870728,156.110641 
	C346.732513,163.562256 346.822266,171.018097 346.822266,178.784302 
	C342.784454,178.784302 339.208099,178.784302 335.271179,178.784302 
	C335.271179,158.742706 335.271179,138.692673 335.271179,118.225708 
	C338.829376,118.225708 342.519958,118.225708 346.756287,118.225708 
	C346.756287,124.335350 346.756287,130.395554 346.756287,135.666122 
	C352.405609,135.034409 357.617004,133.857941 362.787262,134.017151 
	C369.963684,134.238129 374.491425,138.868607 375.072235,146.047531 
	C375.594391,152.501892 375.475830,159.008087 375.639801,165.988297 
z"/>
<path fill="#080501" opacity="1.000000" stroke="none" 
	d="
M384.748871,174.003448 
	C383.785522,170.129761 382.506439,166.594650 382.385223,163.020279 
	C382.075623,153.887894 382.282043,144.738007 382.282043,135.177979 
	C386.284119,135.177979 389.961884,135.177979 394.167908,135.177979 
	C394.167908,142.430649 394.146484,149.553009 394.180847,156.675079 
	C394.191315,158.837906 394.332275,161.001343 394.454773,163.162155 
	C394.708282,167.634155 396.265259,170.980865 401.457764,171.110184 
	C406.271332,171.230042 410.372772,168.082123 410.711792,163.164658 
	C411.180939,156.360229 411.038696,149.513107 411.136017,142.683945 
	C411.171021,140.228226 411.141663,137.771622 411.141663,135.040329 
	C415.249023,135.040329 418.831482,135.040329 422.719055,135.040329 
	C422.719055,149.570786 422.719055,163.985748 422.719055,178.752869 
	C419.460083,178.752869 416.208405,178.752869 412.517212,178.752869 
	C412.278107,177.867798 411.966827,176.715576 411.638763,175.501144 
	C402.400024,180.738831 393.393707,183.485275 384.748871,174.003448 
z"/>
<path fill="#040404" opacity="1.000000" stroke="none" 
	d="
M263.013123,164.948441 
	C262.973572,168.099869 263.386566,170.876373 262.745148,173.383087 
	C262.268677,175.245041 260.424377,176.756989 259.189362,178.424835 
	C258.088379,176.789825 256.188110,175.225845 256.035370,173.506607 
	C255.565796,168.221451 255.724915,162.876923 255.715805,157.555344 
	C255.706406,152.066772 255.529327,146.556686 255.983109,141.102386 
	C256.120087,139.455917 258.115936,137.964111 259.260284,136.401459 
	C260.479614,137.935410 262.672729,139.420013 262.753357,141.011688 
	C263.148590,148.811386 262.981506,156.639603 263.013123,164.948441 
z"/>
<path fill="#151515" opacity="1.000000" stroke="none" 
	d="
M215.221130,136.059540 
	C216.842300,137.207855 218.870834,138.299332 219.143723,139.726501 
	C219.812027,143.221573 219.669846,146.871613 219.872421,150.822113 
	C217.228409,150.822113 215.015442,150.822113 212.138809,150.822113 
	C212.822433,145.912628 210.290421,140.543747 215.221130,136.059540 
z"/>
<path fill="#EF921C" opacity="1.000000" stroke="none" 
	d="
M443.251495,164.367767 
	C443.062958,159.100037 442.400909,154.106598 443.161407,149.340118 
	C443.843323,145.066116 447.345154,142.778061 451.931335,142.790298 
	C456.578308,142.802689 459.654663,145.332535 460.605103,149.543259 
	C461.460541,153.333084 461.575470,157.404419 461.309540,161.303345 
	C460.994965,165.915695 458.713715,169.709763 453.791199,170.643631 
	C448.890015,171.573441 445.584808,168.964645 443.251495,164.367767 
z"/>
</svg>